<svg id="svg" version="1.1" xmlns="http://www.w3.org/2000/svg" xmlns:xlink="http://www.w3.org/1999/xlink" width="400" height="330.9692671394799" viewBox="0, 0, 400,330.9692671394799"><g id="svgg"><path id="path0" d="M47.363 18.521 C 46.612 19.924,46.916 315.035,47.669 315.716 C 48.341 316.324,50.000 316.211,50.000 315.557 C 50.000 315.378,50.280 315.232,50.622 315.232 C 50.964 315.232,51.429 315.008,51.656 314.735 C 51.882 314.462,52.329 314.238,52.649 314.238 C 52.969 314.238,53.416 314.015,53.642 313.742 C 53.869 313.469,54.316 313.245,54.636 313.245 C 54.955 313.245,55.402 313.022,55.629 312.748 C 55.856 312.475,56.198 312.252,56.389 312.252 C 56.809 312.252,61.025 310.238,61.258 309.926 C 61.349 309.804,61.834 309.604,62.334 309.482 C 62.835 309.359,63.245 309.113,63.245 308.934 C 63.245 308.755,63.525 308.609,63.867 308.609 C 64.209 308.609,64.674 308.386,64.901 308.113 C 65.127 307.839,65.574 307.616,65.894 307.616 C 66.214 307.616,66.661 307.392,66.887 307.119 C 67.114 306.846,67.561 306.623,67.881 306.623 C 68.200 306.623,68.647 306.399,68.874 306.126 C 69.101 305.853,69.548 305.629,69.868 305.629 C 70.187 305.629,70.634 305.406,70.861 305.132 C 71.088 304.859,71.455 304.636,71.676 304.636 C 72.221 304.636,76.296 302.599,76.435 302.258 C 76.496 302.109,76.813 301.987,77.139 301.987 C 77.466 301.987,77.919 301.763,78.146 301.490 C 78.372 301.217,78.819 300.993,79.139 300.993 C 79.459 300.993,79.906 300.770,80.132 300.497 C 80.359 300.224,80.806 300.000,81.126 300.000 C 81.445 300.000,81.892 299.776,82.119 299.503 C 82.346 299.230,82.793 299.007,83.113 299.007 C 83.432 299.007,83.879 298.783,84.106 298.510 C 84.333 298.237,84.673 298.013,84.863 298.013 C 85.450 298.013,87.748 296.908,87.748 296.625 C 87.748 296.478,88.036 296.358,88.387 296.358 C 88.738 296.358,89.249 296.134,89.522 295.861 C 89.795 295.588,90.235 295.364,90.499 295.364 C 90.763 295.364,91.164 295.141,91.391 294.868 C 91.617 294.594,92.064 294.371,92.384 294.371 C 92.704 294.371,93.151 294.147,93.377 293.874 C 93.604 293.601,94.051 293.377,94.371 293.377 C 94.691 293.377,95.138 293.154,95.364 292.881 C 95.591 292.608,96.047 292.384,96.379 292.384 C 96.710 292.384,97.070 292.239,97.180 292.062 C 97.394 291.715,99.036 290.916,100.248 290.567 C 100.658 290.449,100.993 290.214,100.993 290.044 C 100.993 289.874,101.281 289.735,101.632 289.735 C 101.983 289.735,102.494 289.512,102.767 289.238 C 103.040 288.965,103.480 288.742,103.744 288.742 C 104.008 288.742,104.409 288.518,104.636 288.245 C 104.862 287.972,105.309 287.748,105.629 287.748 C 105.949 287.748,106.396 287.525,106.623 287.252 C 106.849 286.978,107.296 286.755,107.616 286.755 C 107.936 286.755,108.383 286.531,108.609 286.258 C 108.836 285.985,109.283 285.762,109.603 285.762 C 109.922 285.762,110.369 285.538,110.596 285.265 C 110.823 284.992,111.288 284.768,111.630 284.768 C 111.972 284.768,112.252 284.619,112.252 284.437 C 112.252 284.255,112.539 284.106,112.890 284.106 C 113.241 284.106,113.727 283.908,113.970 283.665 C 114.212 283.423,114.819 283.122,115.318 282.997 C 115.817 282.871,116.225 282.623,116.225 282.444 C 116.225 282.265,116.505 282.119,116.847 282.119 C 117.189 282.119,117.654 281.896,117.881 281.623 C 118.108 281.349,118.555 281.126,118.874 281.126 C 119.194 281.126,119.641 280.902,119.868 280.629 C 120.094 280.356,120.541 280.132,120.861 280.132 C 121.181 280.132,121.628 279.909,121.854 279.636 C 122.081 279.363,122.537 279.139,122.869 279.139 C 123.200 279.139,123.560 278.994,123.670 278.817 C 123.884 278.470,125.526 277.671,126.738 277.322 C 127.148 277.204,127.483 276.969,127.483 276.799 C 127.483 276.629,127.771 276.490,128.122 276.490 C 128.473 276.490,128.984 276.267,129.257 275.993 C 129.531 275.720,129.970 275.497,130.234 275.497 C 130.498 275.497,130.899 275.273,131.126 275.000 C 131.353 274.727,131.800 274.503,132.119 274.503 C 132.439 274.503,132.886 274.280,133.113 274.007 C 133.339 273.733,133.786 273.510,134.106 273.510 C 134.426 273.510,134.873 273.286,135.099 273.013 C 135.326 272.740,135.783 272.517,136.114 272.517 C 136.445 272.517,136.806 272.372,136.915 272.194 C 137.129 271.848,138.771 271.048,139.983 270.699 C 140.393 270.582,140.728 270.346,140.728 270.176 C 140.728 270.007,141.016 269.868,141.367 269.868 C 141.718 269.868,142.229 269.644,142.502 269.371 C 142.776 269.098,143.215 268.874,143.479 268.874 C 143.743 268.874,144.144 268.651,144.371 268.377 C 144.598 268.104,145.045 267.881,145.364 267.881 C 145.684 267.881,146.131 267.657,146.358 267.384 C 146.584 267.111,147.031 266.887,147.351 266.887 C 147.671 266.887,148.118 266.664,148.344 266.391 C 148.571 266.118,149.028 265.894,149.359 265.894 C 149.690 265.894,150.051 265.749,150.160 265.572 C 150.374 265.225,152.016 264.426,153.228 264.077 C 153.638 263.959,153.974 263.724,153.974 263.554 C 153.974 263.384,154.253 263.245,154.595 263.245 C 154.937 263.245,155.402 263.022,155.629 262.748 C 155.856 262.475,156.303 262.252,156.623 262.252 C 156.942 262.252,157.389 262.028,157.616 261.755 C 157.843 261.482,158.290 261.258,158.609 261.258 C 158.929 261.258,159.376 261.035,159.603 260.762 C 159.829 260.488,160.276 260.265,160.596 260.265 C 160.916 260.265,161.363 260.041,161.589 259.768 C 161.816 259.495,162.263 259.272,162.583 259.272 C 162.902 259.272,163.349 259.048,163.576 258.775 C 163.803 258.502,164.268 258.278,164.610 258.278 C 164.952 258.278,165.232 258.129,165.232 257.947 C 165.232 257.765,165.519 257.616,165.870 257.616 C 166.222 257.616,166.732 257.392,167.006 257.119 C 167.279 256.846,167.718 256.623,167.982 256.623 C 168.246 256.623,168.647 256.399,168.874 256.126 C 169.101 255.853,169.548 255.629,169.868 255.629 C 170.187 255.629,170.634 255.406,170.861 255.132 C 171.088 254.859,171.535 254.636,171.854 254.636 C 172.174 254.636,172.621 254.412,172.848 254.139 C 173.074 253.866,173.521 253.642,173.841 253.642 C 174.161 253.642,174.608 253.419,174.834 253.146 C 175.061 252.873,175.518 252.649,175.849 252.649 C 176.180 252.649,176.541 252.504,176.650 252.327 C 176.864 251.980,178.506 251.181,179.719 250.832 C 180.128 250.714,180.464 250.479,180.464 250.309 C 180.464 250.139,180.743 250.000,181.085 250.000 C 181.427 250.000,181.892 249.776,182.119 249.503 C 182.346 249.230,182.793 249.007,183.113 249.007 C 183.432 249.007,183.879 248.783,184.106 248.510 C 184.333 248.237,184.780 248.013,185.099 248.013 C 185.419 248.013,185.866 247.790,186.093 247.517 C 186.319 247.243,186.766 247.020,187.086 247.020 C 187.406 247.020,187.853 246.796,188.079 246.523 C 188.306 246.250,188.763 246.026,189.094 246.026 C 189.425 246.026,189.786 245.881,189.895 245.704 C 190.109 245.358,191.751 244.558,192.964 244.209 C 193.373 244.091,193.709 243.856,193.709 243.686 C 193.709 243.516,193.979 243.377,194.309 243.377 C 194.639 243.377,195.337 242.930,195.861 242.384 C 196.384 241.838,197.065 241.391,197.372 241.391 C 197.680 241.391,198.118 241.167,198.344 240.894 C 198.571 240.621,199.018 240.397,199.338 240.397 C 199.657 240.397,200.104 240.174,200.331 239.901 C 200.558 239.627,201.005 239.404,201.325 239.404 C 201.644 239.404,202.091 239.180,202.318 238.907 C 202.545 238.634,203.010 238.411,203.352 238.411 C 203.694 238.411,203.974 238.262,203.974 238.079 C 203.974 237.897,204.261 237.748,204.612 237.748 C 204.963 237.748,205.449 237.550,205.692 237.308 C 205.934 237.065,206.541 236.764,207.040 236.639 C 207.539 236.514,207.947 236.265,207.947 236.086 C 207.947 235.908,208.227 235.762,208.569 235.762 C 208.911 235.762,209.376 235.538,209.603 235.265 C 209.829 234.992,210.276 234.768,210.596 234.768 C 210.916 234.768,211.363 234.545,211.589 234.272 C 211.816 233.998,212.263 233.775,212.583 233.775 C 212.902 233.775,213.349 233.551,213.576 233.278 C 213.803 233.005,214.250 232.781,214.570 232.781 C 214.889 232.781,215.336 232.558,215.563 232.285 C 215.790 232.012,216.255 231.788,216.597 231.788 C 216.939 231.788,217.219 231.639,217.219 231.457 C 217.219 231.275,217.506 231.126,217.857 231.126 C 218.208 231.126,218.694 230.927,218.937 230.685 C 219.179 230.443,219.786 230.142,220.285 230.016 C 220.784 229.891,221.192 229.643,221.192 229.464 C 221.192 229.285,221.472 229.139,221.814 229.139 C 222.156 229.139,222.621 228.916,222.848 228.642 C 223.074 228.369,223.521 228.146,223.841 228.146 C 224.161 228.146,224.608 227.922,224.834 227.649 C 225.061 227.376,225.508 227.152,225.828 227.152 C 226.147 227.152,226.594 226.929,226.821 226.656 C 227.048 226.382,227.504 226.159,227.836 226.159 C 228.167 226.159,228.527 226.014,228.637 225.837 C 228.851 225.490,230.493 224.690,231.705 224.342 C 232.115 224.224,232.450 223.989,232.450 223.819 C 232.450 223.649,232.738 223.510,233.089 223.510 C 233.440 223.510,233.951 223.286,234.224 223.013 C 234.497 222.740,234.937 222.517,235.201 222.517 C 235.465 222.517,235.866 222.293,236.093 222.020 C 236.319 221.747,236.766 221.523,237.086 221.523 C 237.406 221.523,237.853 221.300,238.079 221.026 C 238.306 220.753,238.753 220.530,239.073 220.530 C 239.392 220.530,239.840 220.306,240.066 220.033 C 240.293 219.760,240.749 219.536,241.081 219.536 C 241.412 219.536,241.772 219.391,241.882 219.214 C 242.096 218.868,243.738 218.068,244.950 217.719 C 245.360 217.601,245.695 217.366,245.695 217.196 C 245.695 217.026,245.983 216.887,246.334 216.887 C 246.685 216.887,247.196 216.664,247.469 216.391 C 247.742 216.118,248.182 215.894,248.446 215.894 C 248.710 215.894,249.111 215.671,249.338 215.397 C 249.564 215.124,250.011 214.901,250.331 214.901 C 250.651 214.901,251.098 214.677,251.325 214.404 C 251.551 214.131,251.998 213.907,252.318 213.907 C 252.638 213.907,253.085 213.684,253.311 213.411 C 253.538 213.137,253.994 212.914,254.326 212.914 C 254.657 212.914,255.017 212.769,255.127 212.592 C 255.341 212.245,256.983 211.445,258.195 211.097 C 258.605 210.979,258.940 210.744,258.940 210.574 C 258.940 210.404,259.228 210.265,259.579 210.265 C 259.930 210.265,260.441 210.041,260.714 209.768 C 260.987 209.495,261.427 209.272,261.691 209.272 C 261.955 209.272,262.356 209.048,262.583 208.775 C 262.809 208.502,263.257 208.278,263.576 208.278 C 263.896 208.278,264.343 208.055,264.570 207.781 C 264.796 207.508,265.243 207.285,265.563 207.285 C 265.883 207.285,266.330 207.061,266.556 206.788 C 266.783 206.515,267.239 206.291,267.571 206.291 C 267.902 206.291,268.262 206.146,268.372 205.969 C 268.586 205.623,270.228 204.823,271.440 204.474 C 271.850 204.356,272.185 204.121,272.185 203.951 C 272.185 203.781,272.465 203.642,272.807 203.642 C 273.149 203.642,273.614 203.419,273.841 203.146 C 274.068 202.873,274.515 202.649,274.834 202.649 C 275.154 202.649,275.601 202.425,275.828 202.152 C 276.055 201.879,276.502 201.656,276.821 201.656 C 277.141 201.656,277.588 201.432,277.815 201.159 C 278.041 200.886,278.488 200.662,278.808 200.662 C 279.128 200.662,279.575 200.439,279.801 200.166 C 280.028 199.892,280.485 199.669,280.816 199.669 C 281.147 199.669,281.507 199.524,281.617 199.347 C 281.831 199.000,283.473 198.200,284.685 197.852 C 285.095 197.734,285.430 197.499,285.430 197.329 C 285.430 197.159,285.710 197.020,286.052 197.020 C 286.394 197.020,286.859 196.796,287.086 196.523 C 287.313 196.250,287.760 196.026,288.079 196.026 C 288.399 196.026,288.846 195.803,289.073 195.530 C 289.300 195.257,289.747 195.033,290.066 195.033 C 290.386 195.033,290.833 194.810,291.060 194.536 C 291.286 194.263,291.733 194.040,292.053 194.040 C 292.373 194.040,292.820 193.816,293.046 193.543 C 293.273 193.270,293.730 193.046,294.061 193.046 C 294.392 193.046,294.753 192.901,294.862 192.724 C 295.076 192.378,296.718 191.578,297.930 191.229 C 298.340 191.111,298.675 190.876,298.675 190.706 C 298.675 190.536,298.955 190.397,299.297 190.397 C 299.639 190.397,300.104 190.174,300.331 189.901 C 300.558 189.627,301.005 189.404,301.325 189.404 C 301.644 189.404,302.091 189.180,302.318 188.907 C 302.545 188.634,302.992 188.411,303.311 188.411 C 303.631 188.411,304.078 188.187,304.305 187.914 C 304.531 187.641,304.978 187.417,305.298 187.417 C 305.618 187.417,306.065 187.194,306.291 186.921 C 306.518 186.647,306.975 186.424,307.306 186.424 C 307.637 186.424,307.998 186.279,308.107 186.102 C 308.321 185.755,309.963 184.955,311.175 184.607 C 311.585 184.489,311.921 184.253,311.921 184.084 C 311.921 183.914,312.200 183.775,312.542 183.775 C 312.884 183.775,313.349 183.551,313.576 183.278 C 313.803 183.005,314.250 182.781,314.570 182.781 C 314.889 182.781,315.336 182.558,315.563 182.285 C 315.790 182.012,316.237 181.788,316.556 181.788 C 316.876 181.788,317.323 181.565,317.550 181.291 C 317.776 181.018,318.223 180.795,318.543 180.795 C 318.863 180.795,319.310 180.571,319.536 180.298 C 319.763 180.025,320.220 179.801,320.551 179.801 C 320.882 179.801,321.243 179.656,321.352 179.479 C 321.566 179.133,323.208 178.333,324.421 177.984 C 324.830 177.866,325.166 177.631,325.166 177.461 C 325.166 177.291,325.445 177.152,325.787 177.152 C 326.129 177.152,326.594 176.929,326.821 176.656 C 327.048 176.382,327.495 176.159,327.815 176.159 C 328.134 176.159,328.581 175.935,328.808 175.662 C 329.035 175.389,329.482 175.166,329.801 175.166 C 330.121 175.166,330.568 174.942,330.795 174.669 C 331.021 174.396,331.468 174.172,331.788 174.172 C 332.108 174.172,332.555 173.949,332.781 173.675 C 333.008 173.402,333.473 173.179,333.815 173.179 C 334.157 173.179,334.437 173.058,334.437 172.911 C 334.437 172.647,336.229 171.789,337.666 171.367 C 338.075 171.246,338.411 171.008,338.411 170.839 C 338.411 170.669,338.690 170.530,339.032 170.530 C 339.374 170.530,339.840 170.306,340.066 170.033 C 340.293 169.760,340.730 169.536,341.038 169.536 C 341.801 169.536,343.377 167.834,343.377 167.010 C 343.377 166.082,341.618 164.498,339.735 163.731 C 339.462 163.619,339.015 163.389,338.742 163.219 C 338.469 163.049,338.022 162.825,337.748 162.722 C 337.475 162.619,337.028 162.396,336.755 162.226 C 336.482 162.056,336.035 161.832,335.762 161.729 C 335.488 161.626,335.041 161.402,334.768 161.232 C 334.495 161.062,334.048 160.833,333.775 160.723 C 333.502 160.613,332.533 160.180,331.623 159.761 C 330.712 159.342,329.743 158.910,329.470 158.800 C 329.197 158.691,328.526 158.307,327.980 157.947 C 327.434 157.587,326.763 157.205,326.490 157.099 C 326.217 156.993,325.770 156.767,325.497 156.597 C 325.224 156.426,324.776 156.203,324.503 156.100 C 324.230 155.997,323.783 155.773,323.510 155.603 C 323.237 155.433,322.790 155.209,322.517 155.106 C 322.243 155.003,321.796 154.780,321.523 154.610 C 321.250 154.440,320.803 154.209,320.530 154.097 C 318.707 153.349,313.892 150.905,313.732 150.646 C 313.625 150.473,313.266 150.331,312.935 150.331 C 312.604 150.331,312.147 150.108,311.921 149.834 C 311.694 149.561,311.247 149.338,310.927 149.338 C 310.608 149.338,310.160 149.114,309.934 148.841 C 309.707 148.568,309.260 148.344,308.940 148.344 C 308.621 148.344,308.174 148.121,307.947 147.848 C 307.720 147.575,307.255 147.351,306.913 147.351 C 306.571 147.351,306.291 147.202,306.291 147.020 C 306.291 146.838,306.121 146.689,305.912 146.689 C 305.362 146.689,300.733 144.422,300.494 144.035 C 300.383 143.856,300.021 143.709,299.690 143.709 C 299.359 143.709,298.902 143.485,298.675 143.212 C 298.449 142.939,298.002 142.715,297.682 142.715 C 297.362 142.715,296.915 142.492,296.689 142.219 C 296.462 141.945,296.015 141.722,295.695 141.722 C 295.376 141.722,294.929 141.498,294.702 141.225 C 294.475 140.952,294.010 140.728,293.668 140.728 C 293.326 140.728,293.046 140.590,293.046 140.420 C 293.046 140.250,292.711 140.016,292.301 139.899 C 291.140 139.570,287.459 137.752,287.242 137.401 C 287.135 137.228,286.776 137.086,286.445 137.086 C 286.114 137.086,285.657 136.863,285.430 136.589 C 285.204 136.316,284.757 136.093,284.437 136.093 C 284.117 136.093,283.670 135.869,283.444 135.596 C 283.217 135.323,282.770 135.099,282.450 135.099 C 282.131 135.099,281.684 134.876,281.457 134.603 C 281.230 134.329,280.765 134.106,280.423 134.106 C 280.081 134.106,279.801 133.967,279.801 133.797 C 279.801 133.627,279.466 133.393,279.056 133.277 C 277.895 132.947,274.214 131.130,273.997 130.779 C 273.890 130.605,273.531 130.464,273.200 130.464 C 272.869 130.464,272.412 130.240,272.185 129.967 C 271.959 129.694,271.512 129.470,271.192 129.470 C 270.872 129.470,270.425 129.247,270.199 128.974 C 269.972 128.700,269.525 128.477,269.205 128.477 C 268.886 128.477,268.439 128.253,268.212 127.980 C 267.985 127.707,267.520 127.483,267.178 127.483 C 266.836 127.483,266.556 127.334,266.556 127.152 C 266.556 126.970,266.409 126.821,266.228 126.821 C 265.641 126.821,262.583 125.380,262.583 125.104 C 262.583 124.956,262.303 124.834,261.961 124.834 C 261.619 124.834,261.154 124.611,260.927 124.338 C 260.700 124.065,260.253 123.841,259.934 123.841 C 259.614 123.841,259.167 123.618,258.940 123.344 C 258.714 123.071,258.267 122.848,257.947 122.848 C 257.627 122.848,257.180 122.624,256.954 122.351 C 256.727 122.078,256.280 121.854,255.960 121.854 C 255.641 121.854,255.194 121.631,254.967 121.358 C 254.740 121.084,254.275 120.861,253.933 120.861 C 253.591 120.861,253.311 120.722,253.311 120.552 C 253.311 120.382,252.976 120.145,252.566 120.024 C 251.129 119.601,249.338 118.744,249.338 118.479 C 249.338 118.332,249.058 118.212,248.716 118.212 C 248.374 118.212,247.909 117.988,247.682 117.715 C 247.455 117.442,247.008 117.219,246.689 117.219 C 246.369 117.219,245.922 116.995,245.695 116.722 C 245.469 116.449,245.022 116.225,244.702 116.225 C 244.382 116.225,243.935 116.002,243.709 115.728 C 243.482 115.455,243.035 115.232,242.715 115.232 C 242.396 115.232,241.949 115.008,241.722 114.735 C 241.495 114.462,241.030 114.238,240.688 114.238 C 240.346 114.238,240.066 114.099,240.066 113.930 C 240.066 113.760,239.731 113.522,239.321 113.402 C 237.884 112.979,236.093 112.122,236.093 111.857 C 236.093 111.710,235.813 111.589,235.471 111.589 C 235.129 111.589,234.664 111.366,234.437 111.093 C 234.210 110.820,233.763 110.596,233.444 110.596 C 233.124 110.596,232.677 110.373,232.450 110.099 C 232.224 109.826,231.777 109.603,231.457 109.603 C 231.137 109.603,230.690 109.379,230.464 109.106 C 230.237 108.833,229.790 108.609,229.470 108.609 C 229.151 108.609,228.704 108.386,228.477 108.113 C 228.250 107.839,227.785 107.616,227.443 107.616 C 227.101 107.616,226.821 107.477,226.821 107.307 C 226.821 107.137,226.486 106.902,226.076 106.784 C 224.863 106.435,223.222 105.636,223.008 105.289 C 222.898 105.112,222.538 104.967,222.206 104.967 C 221.875 104.967,221.419 104.743,221.192 104.470 C 220.965 104.197,220.518 103.974,220.199 103.974 C 219.879 103.974,219.432 103.750,219.205 103.477 C 218.979 103.204,218.532 102.980,218.212 102.980 C 217.892 102.980,217.445 102.757,217.219 102.483 C 216.992 102.210,216.545 101.987,216.225 101.987 C 215.906 101.987,215.459 101.763,215.232 101.490 C 215.005 101.217,214.540 100.993,214.198 100.993 C 213.856 100.993,213.576 100.854,213.576 100.685 C 213.576 100.515,213.241 100.279,212.831 100.162 C 211.618 99.813,209.977 99.013,209.763 98.667 C 209.653 98.489,209.293 98.344,208.961 98.344 C 208.630 98.344,208.174 98.121,207.947 97.848 C 207.720 97.575,207.273 97.351,206.954 97.351 C 206.634 97.351,206.187 97.127,205.960 96.854 C 205.734 96.581,205.287 96.358,204.967 96.358 C 204.647 96.358,204.200 96.134,203.974 95.861 C 203.747 95.588,203.300 95.364,202.980 95.364 C 202.660 95.364,202.213 95.141,201.987 94.868 C 201.760 94.594,201.295 94.371,200.953 94.371 C 200.611 94.371,200.331 94.232,200.331 94.062 C 200.331 93.892,199.996 93.657,199.586 93.539 C 198.098 93.111,196.745 92.370,195.980 91.564 C 195.550 91.111,194.956 90.737,194.660 90.734 C 194.363 90.731,193.935 90.505,193.709 90.232 C 193.482 89.959,193.035 89.735,192.715 89.735 C 192.396 89.735,191.949 89.512,191.722 89.238 C 191.495 88.965,191.048 88.742,190.728 88.742 C 190.409 88.742,189.962 88.518,189.735 88.245 C 189.508 87.972,189.043 87.748,188.701 87.748 C 188.359 87.748,188.079 87.599,188.079 87.417 C 188.079 87.235,187.909 87.086,187.700 87.086 C 187.150 87.086,182.521 84.819,182.282 84.433 C 182.171 84.253,181.809 84.106,181.478 84.106 C 181.147 84.106,180.690 83.882,180.464 83.609 C 180.237 83.336,179.790 83.113,179.470 83.113 C 179.151 83.113,178.704 82.889,178.477 82.616 C 178.250 82.343,177.803 82.119,177.483 82.119 C 177.164 82.119,176.717 81.896,176.490 81.623 C 176.263 81.349,175.798 81.126,175.456 81.126 C 175.114 81.126,174.834 80.987,174.834 80.817 C 174.834 80.647,174.499 80.410,174.089 80.289 C 172.652 79.866,170.861 79.009,170.861 78.744 C 170.861 78.597,170.581 78.477,170.239 78.477 C 169.897 78.477,169.432 78.253,169.205 77.980 C 168.979 77.707,168.532 77.483,168.212 77.483 C 167.892 77.483,167.445 77.260,167.219 76.987 C 166.992 76.714,166.545 76.490,166.225 76.490 C 165.906 76.490,165.459 76.267,165.232 75.993 C 165.005 75.720,164.558 75.497,164.238 75.497 C 163.919 75.497,163.472 75.273,163.245 75.000 C 163.018 74.727,162.553 74.503,162.211 74.503 C 161.869 74.503,161.589 74.364,161.589 74.194 C 161.589 74.025,161.254 73.791,160.844 73.674 C 159.683 73.345,156.002 71.527,155.785 71.176 C 155.678 71.003,155.319 70.861,154.988 70.861 C 154.657 70.861,154.200 70.637,153.974 70.364 C 153.747 70.091,153.300 69.868,152.980 69.868 C 152.660 69.868,152.213 69.644,151.987 69.371 C 151.760 69.098,151.313 68.874,150.993 68.874 C 150.674 68.874,150.227 68.651,150.000 68.377 C 149.773 68.104,149.308 67.881,148.966 67.881 C 148.624 67.881,148.344 67.742,148.344 67.572 C 148.344 67.402,148.009 67.167,147.599 67.049 C 146.387 66.700,144.745 65.901,144.531 65.554 C 144.421 65.377,144.061 65.232,143.730 65.232 C 143.398 65.232,142.942 65.008,142.715 64.735 C 142.489 64.462,142.041 64.238,141.722 64.238 C 141.402 64.238,140.955 64.015,140.728 63.742 C 140.502 63.469,140.055 63.245,139.735 63.245 C 139.415 63.245,138.968 63.022,138.742 62.748 C 138.515 62.475,138.068 62.252,137.748 62.252 C 137.429 62.252,136.982 62.028,136.755 61.755 C 136.528 61.482,136.063 61.258,135.721 61.258 C 135.379 61.258,135.099 61.119,135.099 60.949 C 135.099 60.780,134.764 60.542,134.354 60.421 C 132.917 59.999,131.126 59.141,131.126 58.877 C 131.126 58.730,130.846 58.609,130.504 58.609 C 130.162 58.609,129.697 58.386,129.470 58.113 C 129.243 57.839,128.796 57.616,128.477 57.616 C 128.157 57.616,127.710 57.392,127.483 57.119 C 127.257 56.846,126.810 56.623,126.490 56.623 C 126.170 56.623,125.723 56.399,125.497 56.126 C 125.270 55.853,124.823 55.629,124.503 55.629 C 124.184 55.629,123.737 55.406,123.510 55.132 C 123.283 54.859,122.818 54.636,122.476 54.636 C 122.134 54.636,121.854 54.497,121.854 54.327 C 121.854 54.157,121.519 53.922,121.109 53.804 C 119.896 53.455,118.255 52.656,118.041 52.309 C 117.931 52.132,117.571 51.987,117.240 51.987 C 116.908 51.987,116.452 51.763,116.225 51.490 C 115.998 51.217,115.551 50.993,115.232 50.993 C 114.912 50.993,114.465 50.770,114.238 50.497 C 114.012 50.224,113.565 50.000,113.245 50.000 C 112.925 50.000,112.478 49.776,112.252 49.503 C 112.025 49.230,111.578 49.007,111.258 49.007 C 110.939 49.007,110.492 48.783,110.265 48.510 C 110.038 48.237,109.573 48.013,109.231 48.013 C 108.889 48.013,108.609 47.874,108.609 47.704 C 108.609 47.535,108.274 47.299,107.864 47.181 C 106.651 46.833,105.010 46.033,104.796 45.687 C 104.686 45.509,104.326 45.364,103.995 45.364 C 103.663 45.364,103.207 45.141,102.980 44.868 C 102.753 44.594,102.306 44.371,101.987 44.371 C 101.667 44.371,101.220 44.147,100.993 43.874 C 100.767 43.601,100.320 43.377,100.000 43.377 C 99.680 43.377,99.233 43.154,99.007 42.881 C 98.780 42.608,98.333 42.384,98.013 42.384 C 97.694 42.384,97.247 42.161,97.020 41.887 C 96.793 41.614,96.328 41.391,95.986 41.391 C 95.644 41.391,95.364 41.252,95.364 41.082 C 95.364 40.912,95.029 40.677,94.619 40.559 C 93.406 40.210,91.765 39.410,91.551 39.064 C 91.441 38.887,91.081 38.742,90.749 38.742 C 90.418 38.742,89.962 38.518,89.735 38.245 C 89.508 37.972,89.061 37.748,88.742 37.748 C 88.422 37.748,87.975 37.525,87.748 37.252 C 87.522 36.978,87.075 36.755,86.755 36.755 C 86.435 36.755,85.988 36.531,85.762 36.258 C 85.535 35.985,85.088 35.762,84.768 35.762 C 84.449 35.762,84.002 35.538,83.775 35.265 C 83.548 34.992,83.083 34.768,82.741 34.768 C 82.399 34.768,82.119 34.629,82.119 34.459 C 82.119 34.290,81.784 34.054,81.374 33.936 C 80.161 33.588,78.520 32.788,78.306 32.441 C 78.196 32.264,77.836 32.119,77.504 32.119 C 77.173 32.119,76.717 31.896,76.490 31.623 C 76.263 31.349,75.816 31.126,75.497 31.126 C 75.177 31.126,74.730 30.902,74.503 30.629 C 74.277 30.356,73.830 30.132,73.510 30.132 C 73.190 30.132,72.743 29.909,72.517 29.636 C 72.290 29.363,71.843 29.139,71.523 29.139 C 71.204 29.139,70.757 28.916,70.530 28.642 C 70.303 28.369,69.838 28.146,69.496 28.146 C 69.154 28.146,68.874 28.007,68.874 27.837 C 68.874 27.667,68.539 27.432,68.129 27.314 C 66.916 26.965,65.275 26.165,65.061 25.819 C 64.951 25.642,64.591 25.497,64.259 25.497 C 63.928 25.497,63.472 25.273,63.245 25.000 C 63.018 24.727,62.571 24.503,62.252 24.503 C 61.932 24.503,61.485 24.280,61.258 24.007 C 61.032 23.733,60.585 23.510,60.265 23.510 C 59.945 23.510,59.498 23.286,59.272 23.013 C 59.045 22.740,58.580 22.517,58.238 22.517 C 57.896 22.517,57.616 22.370,57.616 22.192 C 57.616 22.013,57.208 21.764,56.709 21.639 C 56.210 21.514,55.603 21.213,55.360 20.971 C 55.118 20.728,54.632 20.530,54.281 20.530 C 53.930 20.530,53.642 20.381,53.642 20.199 C 53.642 20.017,53.363 19.868,53.021 19.868 C 52.679 19.868,52.213 19.644,51.987 19.371 C 51.760 19.098,51.313 18.874,50.993 18.874 C 50.674 18.874,50.227 18.651,50.000 18.377 C 49.402 17.657,47.778 17.746,47.363 18.521 M60.207 37.758 C 60.972 38.128,61.932 38.575,62.339 38.751 C 62.746 38.927,63.303 39.210,63.576 39.379 C 63.849 39.549,64.296 39.772,64.570 39.875 C 64.843 39.978,65.290 40.201,65.563 40.371 C 65.836 40.541,66.283 40.765,66.556 40.868 C 66.829 40.971,67.314 41.205,67.632 41.389 C 67.951 41.572,68.473 41.868,68.791 42.047 C 69.651 42.529,72.561 43.950,73.510 44.351 C 73.965 44.543,74.561 44.839,74.834 45.008 C 75.108 45.178,75.555 45.401,75.828 45.504 C 76.101 45.607,76.548 45.830,76.821 46.000 C 77.094 46.171,77.541 46.394,77.815 46.497 C 78.088 46.600,78.609 46.858,78.974 47.070 C 79.952 47.640,80.471 47.906,82.119 48.685 C 82.939 49.072,84.008 49.603,84.496 49.864 C 88.393 51.955,90.679 52.980,91.445 52.980 C 91.940 52.980,92.423 53.106,92.518 53.259 C 92.660 53.490,101.666 58.057,103.311 58.732 C 103.584 58.844,104.031 59.075,104.305 59.246 C 104.578 59.416,105.025 59.639,105.298 59.742 C 105.571 59.845,106.018 60.069,106.291 60.239 C 106.565 60.409,107.012 60.633,107.285 60.736 C 107.558 60.839,108.005 61.050,108.278 61.205 C 108.551 61.360,109.073 61.633,109.437 61.813 C 111.158 62.660,114.456 64.334,114.901 64.586 C 115.174 64.741,116.068 65.184,116.887 65.570 C 117.707 65.956,118.601 66.404,118.874 66.565 C 120.226 67.362,124.251 69.205,124.642 69.205 C 125.014 69.205,129.436 71.242,131.126 72.192 C 131.399 72.346,134.826 74.057,138.742 75.995 C 142.657 77.933,146.084 79.652,146.358 79.815 C 148.046 80.821,156.892 85.099,157.282 85.099 C 157.651 85.099,173.931 93.090,176.159 94.364 C 176.432 94.520,178.965 95.783,181.788 97.169 C 184.611 98.556,187.144 99.814,187.417 99.964 C 189.245 100.969,190.079 101.325,190.614 101.327 C 191.084 101.330,207.271 109.241,210.762 111.175 C 211.126 111.377,212.094 111.858,212.914 112.244 C 213.733 112.630,214.627 113.074,214.901 113.230 C 215.174 113.386,216.746 114.178,218.395 114.991 C 222.372 116.952,222.507 117.019,223.785 117.659 C 224.392 117.963,225.114 118.212,225.390 118.212 C 225.666 118.212,226.287 118.424,226.770 118.683 C 227.253 118.942,227.873 119.239,228.146 119.343 C 228.419 119.447,228.866 119.671,229.139 119.842 C 229.412 120.012,229.859 120.235,230.132 120.338 C 230.406 120.441,230.853 120.661,231.126 120.827 C 231.399 120.993,232.971 121.794,234.620 122.607 C 236.269 123.420,237.908 124.243,238.262 124.435 C 238.617 124.628,239.131 124.871,239.404 124.974 C 239.677 125.077,240.124 125.301,240.397 125.471 C 240.671 125.641,241.118 125.864,241.391 125.967 C 241.664 126.070,242.111 126.294,242.384 126.465 C 242.657 126.635,243.551 127.090,244.371 127.476 C 245.190 127.862,246.084 128.306,246.358 128.461 C 246.631 128.617,247.823 129.210,249.007 129.781 C 250.190 130.351,251.382 130.951,251.656 131.113 C 251.929 131.276,252.376 131.493,252.649 131.597 C 252.922 131.700,253.369 131.923,253.642 132.094 C 253.916 132.264,254.846 132.725,255.710 133.118 C 256.574 133.511,257.365 133.968,257.468 134.135 C 257.571 134.301,258.002 134.437,258.427 134.437 C 258.852 134.437,260.817 135.240,262.795 136.222 C 264.773 137.204,266.614 138.097,266.887 138.207 C 267.161 138.317,267.608 138.546,267.881 138.716 C 268.154 138.886,268.601 139.109,268.874 139.212 C 269.147 139.315,269.594 139.526,269.868 139.681 C 271.362 140.526,271.818 140.765,273.179 141.418 C 273.998 141.811,274.967 142.291,275.331 142.485 C 279.896 144.921,291.038 150.323,291.505 150.326 C 292.041 150.331,292.683 150.603,294.702 151.685 C 295.838 152.293,305.172 156.907,305.629 157.086 C 305.902 157.193,306.349 157.420,306.623 157.590 C 306.896 157.760,307.343 157.984,307.616 158.087 C 307.889 158.190,308.373 158.424,308.692 158.607 C 309.011 158.790,309.532 159.084,309.851 159.260 C 310.615 159.681,320.222 164.425,320.861 164.697 C 321.134 164.813,321.805 165.202,322.351 165.562 C 322.897 165.921,323.708 166.374,324.152 166.567 L 324.959 166.918 323.926 167.547 C 323.357 167.892,322.249 168.484,321.463 168.862 C 320.676 169.239,319.810 169.684,319.536 169.850 C 319.263 170.016,318.369 170.468,317.550 170.854 C 316.730 171.240,315.836 171.684,315.563 171.841 C 315.290 171.998,313.874 172.715,312.417 173.433 C 310.960 174.152,308.427 175.416,306.788 176.243 C 305.149 177.069,303.584 177.834,303.311 177.943 C 303.038 178.052,302.591 178.281,302.318 178.451 C 302.045 178.622,301.151 179.077,300.331 179.463 C 299.512 179.849,298.618 180.291,298.344 180.445 C 296.298 181.600,292.319 183.444,291.873 183.444 C 291.573 183.444,290.932 183.656,290.448 183.914 C 289.965 184.173,289.346 184.470,289.073 184.575 C 288.800 184.679,288.353 184.903,288.079 185.073 C 287.806 185.243,287.359 185.467,287.086 185.570 C 286.813 185.673,286.366 185.892,286.093 186.057 C 285.820 186.222,284.776 186.763,283.775 187.258 C 282.773 187.754,280.687 188.796,279.139 189.575 C 277.591 190.353,276.101 191.079,275.828 191.188 C 275.555 191.297,275.108 191.526,274.834 191.696 C 274.561 191.866,274.114 192.090,273.841 192.193 C 273.568 192.296,273.121 192.519,272.848 192.689 C 272.575 192.859,272.127 193.083,271.854 193.186 C 271.581 193.289,271.134 193.513,270.861 193.684 C 270.588 193.855,269.396 194.459,268.212 195.026 C 267.028 195.593,265.836 196.188,265.563 196.349 C 265.290 196.510,264.843 196.725,264.570 196.828 C 264.296 196.931,263.849 197.155,263.576 197.325 C 263.303 197.495,262.856 197.719,262.583 197.822 C 262.310 197.925,261.863 198.138,261.589 198.295 C 260.110 199.148,258.951 199.669,258.535 199.669 C 258.277 199.669,256.437 200.470,254.447 201.449 C 252.456 202.428,250.604 203.321,250.331 203.434 C 250.058 203.546,249.574 203.788,249.255 203.971 C 248.936 204.155,248.415 204.443,248.096 204.611 C 246.932 205.227,237.568 209.859,237.086 210.057 C 236.813 210.169,236.366 210.400,236.093 210.570 C 235.820 210.740,235.373 210.964,235.099 211.067 C 234.826 211.170,234.342 211.404,234.023 211.587 C 231.568 212.999,226.268 215.563,225.804 215.563 C 225.420 215.563,221.717 217.193,220.530 217.884 C 220.257 218.043,217.724 219.310,214.901 220.700 C 212.078 222.091,209.545 223.355,209.272 223.509 C 206.755 224.934,190.767 232.781,190.381 232.781 C 190.104 232.781,182.742 236.358,174.020 240.728 C 165.299 245.099,157.951 248.675,157.692 248.675 C 157.433 248.675,156.826 248.887,156.342 249.147 C 155.859 249.406,154.793 249.935,153.974 250.322 C 153.154 250.709,152.260 251.158,151.987 251.319 C 151.714 251.480,149.180 252.744,146.358 254.129 C 143.535 255.513,141.002 256.777,140.728 256.938 C 138.829 258.055,124.564 264.905,124.141 264.903 C 123.851 264.902,122.957 265.271,122.155 265.724 C 121.352 266.177,120.472 266.635,120.199 266.742 C 119.668 266.949,119.279 267.138,117.715 267.947 C 117.169 268.230,116.051 268.783,115.232 269.177 C 114.412 269.570,113.518 270.025,113.245 270.187 C 112.972 270.349,112.525 270.566,112.252 270.669 C 111.978 270.772,111.531 270.996,111.258 271.166 C 110.985 271.336,110.538 271.560,110.265 271.663 C 109.992 271.766,109.545 271.986,109.272 272.152 C 108.998 272.318,107.426 273.119,105.777 273.932 C 104.129 274.744,102.490 275.567,102.135 275.760 C 101.780 275.953,101.267 276.195,100.993 276.298 C 100.720 276.401,100.236 276.636,99.917 276.819 C 99.599 277.002,99.077 277.302,98.758 277.486 C 98.440 277.669,97.955 277.903,97.682 278.006 C 97.409 278.109,96.962 278.324,96.689 278.484 C 95.302 279.297,91.225 281.126,90.801 281.126 C 90.514 281.126,85.731 283.375,84.437 284.119 C 84.164 284.276,83.270 284.721,82.450 285.107 C 81.631 285.493,80.662 285.973,80.298 286.173 C 79.934 286.373,77.401 287.642,74.669 288.992 C 71.937 290.342,69.478 291.573,69.205 291.727 C 68.932 291.881,67.293 292.699,65.563 293.546 C 63.833 294.392,61.531 295.535,60.449 296.084 C 58.589 297.027,58.457 297.050,58.048 296.491 C 57.505 295.749,57.397 39.361,57.939 37.935 C 58.328 36.912,58.438 36.903,60.207 37.758 " stroke="none" fill="#019ee2" fill-rule="evenodd"></path><path id="path1" d="M57.939 37.935 C 57.397 39.361,57.505 295.749,58.048 296.491 C 58.457 297.050,58.589 297.027,60.449 296.084 C 61.531 295.535,63.833 294.392,65.563 293.546 C 67.293 292.699,68.932 291.881,69.205 291.727 C 69.478 291.573,71.937 290.342,74.669 288.992 C 77.401 287.642,79.934 286.373,80.298 286.173 C 80.662 285.973,81.631 285.493,82.450 285.107 C 83.270 284.721,84.164 284.276,84.437 284.119 C 85.731 283.375,90.514 281.126,90.801 281.126 C 91.225 281.126,95.302 279.297,96.689 278.484 C 96.962 278.324,97.409 278.109,97.682 278.006 C 97.955 277.903,98.440 277.669,98.758 277.486 C 99.077 277.302,99.599 277.002,99.917 276.819 C 100.236 276.636,100.720 276.401,100.993 276.298 C 101.267 276.195,101.780 275.953,102.135 275.760 C 102.490 275.567,104.129 274.744,105.777 273.932 C 107.426 273.119,108.998 272.318,109.272 272.152 C 109.545 271.986,109.992 271.766,110.265 271.663 C 110.538 271.560,110.985 271.336,111.258 271.166 C 111.531 270.996,111.978 270.772,112.252 270.669 C 112.525 270.566,112.972 270.349,113.245 270.187 C 113.518 270.025,114.412 269.570,115.232 269.177 C 116.051 268.783,117.169 268.230,117.715 267.947 C 119.279 267.138,119.668 266.949,120.199 266.742 C 120.472 266.635,121.352 266.177,122.155 265.724 C 122.957 265.271,123.851 264.902,124.141 264.903 C 124.564 264.905,138.829 258.055,140.728 256.938 C 141.002 256.777,143.535 255.513,146.358 254.129 C 149.180 252.744,151.714 251.480,151.987 251.319 C 152.260 251.158,153.154 250.709,153.974 250.322 C 154.793 249.935,155.859 249.406,156.342 249.147 C 156.826 248.887,157.433 248.675,157.692 248.675 C 157.951 248.675,165.299 245.099,174.020 240.728 C 182.742 236.358,190.104 232.781,190.381 232.781 C 190.767 232.781,206.755 224.934,209.272 223.509 C 209.545 223.355,212.078 222.091,214.901 220.700 C 217.724 219.310,220.257 218.043,220.530 217.884 C 221.717 217.193,225.420 215.563,225.804 215.563 C 226.268 215.563,231.568 212.999,234.023 211.587 C 234.342 211.404,234.826 211.170,235.099 211.067 C 235.373 210.964,235.820 210.740,236.093 210.570 C 236.366 210.400,236.813 210.169,237.086 210.057 C 237.568 209.859,246.932 205.227,248.096 204.611 C 248.415 204.443,248.936 204.155,249.255 203.971 C 249.574 203.788,250.058 203.546,250.331 203.434 C 250.604 203.321,252.456 202.428,254.447 201.449 C 256.437 200.470,258.277 199.669,258.535 199.669 C 258.951 199.669,260.110 199.148,261.589 198.295 C 261.863 198.138,262.310 197.925,262.583 197.822 C 262.856 197.719,263.303 197.495,263.576 197.325 C 263.849 197.155,264.296 196.931,264.570 196.828 C 264.843 196.725,265.290 196.510,265.563 196.349 C 265.836 196.188,267.028 195.593,268.212 195.026 C 269.396 194.459,270.588 193.855,270.861 193.684 C 271.134 193.513,271.581 193.289,271.854 193.186 C 272.127 193.083,272.575 192.859,272.848 192.689 C 273.121 192.519,273.568 192.296,273.841 192.193 C 274.114 192.090,274.561 191.866,274.834 191.696 C 275.108 191.526,275.555 191.297,275.828 191.188 C 276.101 191.079,277.591 190.353,279.139 189.575 C 280.687 188.796,282.773 187.754,283.775 187.258 C 284.776 186.763,285.820 186.222,286.093 186.057 C 286.366 185.892,286.813 185.673,287.086 185.570 C 287.359 185.467,287.806 185.243,288.079 185.073 C 288.353 184.903,288.800 184.679,289.073 184.575 C 289.346 184.470,289.965 184.173,290.448 183.914 C 290.932 183.656,291.573 183.444,291.873 183.444 C 292.319 183.444,296.298 181.600,298.344 180.445 C 298.618 180.291,299.512 179.849,300.331 179.463 C 301.151 179.077,302.045 178.622,302.318 178.451 C 302.591 178.281,303.038 178.052,303.311 177.943 C 303.584 177.834,305.149 177.069,306.788 176.243 C 308.427 175.416,310.960 174.152,312.417 173.433 C 313.874 172.715,315.290 171.998,315.563 171.841 C 315.836 171.684,316.730 171.240,317.550 170.854 C 318.369 170.468,319.263 170.016,319.536 169.850 C 319.810 169.684,320.676 169.239,321.463 168.862 C 322.249 168.484,323.357 167.892,323.926 167.547 L 324.959 166.918 324.152 166.567 C 323.708 166.374,322.897 165.921,322.351 165.562 C 321.805 165.202,321.134 164.813,320.861 164.697 C 320.222 164.425,310.615 159.681,309.851 159.260 C 309.532 159.084,309.011 158.790,308.692 158.607 C 308.373 158.424,307.889 158.190,307.616 158.087 C 307.343 157.984,306.896 157.760,306.623 157.590 C 306.349 157.420,305.902 157.193,305.629 157.086 C 305.172 156.907,295.838 152.293,294.702 151.685 C 292.683 150.603,292.041 150.331,291.505 150.326 C 291.038 150.323,279.896 144.921,275.331 142.485 C 274.967 142.291,273.998 141.811,273.179 141.418 C 271.818 140.765,271.362 140.526,269.868 139.681 C 269.594 139.526,269.147 139.315,268.874 139.212 C 268.601 139.109,268.154 138.886,267.881 138.716 C 267.608 138.546,267.161 138.317,266.887 138.207 C 266.614 138.097,264.773 137.204,262.795 136.222 C 260.817 135.240,258.852 134.437,258.427 134.437 C 258.002 134.437,257.571 134.301,257.468 134.135 C 257.365 133.968,256.574 133.511,255.710 133.118 C 254.846 132.725,253.916 132.264,253.642 132.094 C 253.369 131.923,252.922 131.700,252.649 131.597 C 252.376 131.493,251.929 131.276,251.656 131.113 C 251.382 130.951,250.190 130.351,249.007 129.781 C 247.823 129.210,246.631 128.617,246.358 128.461 C 246.084 128.306,245.190 127.862,244.371 127.476 C 243.551 127.090,242.657 126.635,242.384 126.465 C 242.111 126.294,241.664 126.070,241.391 125.967 C 241.118 125.864,240.671 125.641,240.397 125.471 C 240.124 125.301,239.677 125.077,239.404 124.974 C 239.131 124.871,238.617 124.628,238.262 124.435 C 237.908 124.243,236.269 123.420,234.620 122.607 C 232.971 121.794,231.399 120.993,231.126 120.827 C 230.853 120.661,230.406 120.441,230.132 120.338 C 229.859 120.235,229.412 120.012,229.139 119.842 C 228.866 119.671,228.419 119.447,228.146 119.343 C 227.873 119.239,227.253 118.942,226.770 118.683 C 226.287 118.424,225.666 118.212,225.390 118.212 C 225.114 118.212,224.392 117.963,223.785 117.659 C 222.507 117.019,222.372 116.952,218.395 114.991 C 216.746 114.178,215.174 113.386,214.901 113.230 C 214.627 113.074,213.733 112.630,212.914 112.244 C 212.094 111.858,211.126 111.377,210.762 111.175 C 207.271 109.241,191.084 101.330,190.614 101.327 C 190.079 101.325,189.245 100.969,187.417 99.964 C 187.144 99.814,184.611 98.556,181.788 97.169 C 178.965 95.783,176.432 94.520,176.159 94.364 C 173.931 93.090,157.651 85.099,157.282 85.099 C 156.892 85.099,148.046 80.821,146.358 79.815 C 146.084 79.652,142.657 77.933,138.742 75.995 C 134.826 74.057,131.399 72.346,131.126 72.192 C 129.436 71.242,125.014 69.205,124.642 69.205 C 124.251 69.205,120.226 67.362,118.874 66.565 C 118.601 66.404,117.707 65.956,116.887 65.570 C 116.068 65.184,115.174 64.741,114.901 64.586 C 114.456 64.334,111.158 62.660,109.437 61.813 C 109.073 61.633,108.551 61.360,108.278 61.205 C 108.005 61.050,107.558 60.839,107.285 60.736 C 107.012 60.633,106.565 60.409,106.291 60.239 C 106.018 60.069,105.571 59.845,105.298 59.742 C 105.025 59.639,104.578 59.416,104.305 59.246 C 104.031 59.075,103.584 58.844,103.311 58.732 C 101.666 58.057,92.660 53.490,92.518 53.259 C 92.423 53.106,91.940 52.980,91.445 52.980 C 90.679 52.980,88.393 51.955,84.496 49.864 C 84.008 49.603,82.939 49.072,82.119 48.685 C 80.471 47.906,79.952 47.640,78.974 47.070 C 78.609 46.858,78.088 46.600,77.815 46.497 C 77.541 46.394,77.094 46.171,76.821 46.000 C 76.548 45.830,76.101 45.607,75.828 45.504 C 75.555 45.401,75.108 45.178,74.834 45.008 C 74.561 44.839,73.965 44.543,73.510 44.351 C 72.561 43.950,69.651 42.529,68.791 42.047 C 68.473 41.868,67.951 41.572,67.632 41.389 C 67.314 41.205,66.829 40.971,66.556 40.868 C 66.283 40.765,65.836 40.541,65.563 40.371 C 65.290 40.201,64.843 39.978,64.570 39.875 C 64.296 39.772,63.849 39.549,63.576 39.379 C 63.303 39.210,62.746 38.927,62.339 38.751 C 61.932 38.575,60.972 38.128,60.207 37.758 C 58.438 36.903,58.328 36.912,57.939 37.935 " stroke="none" fill="#000000" fill-rule="evenodd"></path></g></svg>